<?xml version="1.0" encoding="iso-8859-1"?>
<!-- Generator: Adobe Illustrator 19.0.0, SVG Export Plug-In . SVG Version: 6.00 Build 0)  -->
<svg version="1.1" id="Layer_1" xmlns="http://www.w3.org/2000/svg" xmlns:xlink="http://www.w3.org/1999/xlink" x="0px" y="0px"
	 viewBox="0 0 512.01 512.01" style="enable-background:new 0 0 512.01 512.01;" xml:space="preserve">
<g>
	<g>
		<g>
			<path d="M511.791,351.369c-0.213-1.387-0.533-2.773-1.067-4.053c-0.107-0.213-0.107-0.427-0.213-0.64l-74.667-128
				c-1.92-3.307-5.44-5.333-9.173-5.333h-53.013c-5.333,0-10.133,3.84-10.88,9.067c-0.96,6.613,4.16,12.267,10.56,12.267h47.253
				l62.187,106.667h-130.88c-5.867,0-10.667,4.8-10.667,10.667v21.333c0,17.707-14.293,32-32,32h-96c-17.707,0-32-14.293-32-32
				v-21.333c0-5.867-4.8-10.667-10.667-10.667H29.125l62.187-106.667h68.16c5.333,0,10.133-3.84,10.88-9.067
				c0.96-6.613-4.16-12.267-10.56-12.267h-74.56c-3.84,0-7.36,2.027-9.173,5.333l-74.667,128c-0.107,0.213-0.107,0.427-0.213,0.64
				c-0.32,0.64-0.533,1.28-0.64,2.027c-0.213,0.64-0.32,1.387-0.427,2.133c0,0.213-0.107,0.427-0.107,0.64v149.227
				c0,5.867,4.8,10.667,10.667,10.667h490.667c5.867,0,10.667-4.8,10.667-10.667V352.009
				C511.898,351.796,511.791,351.583,511.791,351.369z M490.565,490.676H21.231v-128h138.667v10.667
				c0,29.44,23.893,53.333,53.333,53.333h96c29.44,0,53.333-23.893,53.333-53.333v-10.667h128V490.676z"/>
			<path d="M258.991,252.916c4.16,4.16,10.88,4.16,15.04,0l85.333-85.333c4.053-4.267,3.947-10.987-0.213-15.04
				c-4.16-3.947-10.667-3.947-14.827,0l-67.093,67.093V10.996c0-5.333-3.84-10.133-9.067-10.88
				c-6.613-0.96-12.267,4.16-12.267,10.56v208.96l-67.093-67.093c-4.267-4.053-10.987-3.947-15.04,0.213
				c-3.947,4.16-3.947,10.667,0,14.827L258.991,252.916z"/>
		</g>
	</g>
</g>
<g>
</g>
<g>
</g>
<g>
</g>
<g>
</g>
<g>
</g>
<g>
</g>
<g>
</g>
<g>
</g>
<g>
</g>
<g>
</g>
<g>
</g>
<g>
</g>
<g>
</g>
<g>
</g>
<g>
</g>
</svg>
